<?xml version="1.0" encoding="iso-8859-1"?>
<!-- Generator: Adobe Illustrator 17.1.0, SVG Export Plug-In . SVG Version: 6.00 Build 0)  -->
<!DOCTYPE svg PUBLIC "-//W3C//DTD SVG 1.1//EN" "http://www.w3.org/Graphics/SVG/1.1/DTD/svg11.dtd">
<svg version="1.1" id="Capa_1" xmlns="http://www.w3.org/2000/svg" xmlns:xlink="http://www.w3.org/1999/xlink" x="0px" y="0px"
	 viewBox="0 0 416.991 416.991" style="enable-background:new 0 0 416.991 416.991;" xml:space="preserve">
<g>
	<path d="M187.409,101.165c-1.591-0.916-3.402-1.4-5.238-1.4c-3.739,0-7.223,2.011-9.101,5.262
		c-2.884,5.011-1.157,11.439,3.862,14.338c1.591,0.916,3.402,1.4,5.238,1.4c3.739,0,7.224-2.011,9.101-5.262
		C194.155,110.493,192.428,104.064,187.409,101.165z"/>
	<path d="M110.257,171.672c-1.835,0-3.646,0.484-5.258,1.412c-5.007,2.898-6.727,9.33-3.841,14.327
		c1.868,3.245,5.354,5.261,9.1,5.262h0.001c1.835,0,3.646-0.484,5.25-1.407c2.428-1.402,4.164-3.665,4.891-6.373
		c0.727-2.71,0.354-5.542-1.049-7.971C117.48,173.683,113.996,171.672,110.257,171.672z"/>
	<path d="M136.574,269.904c-5.79,0-10.5,4.71-10.5,10.5c0,5.789,4.711,10.5,10.5,10.5c5.79,0,10.5-4.711,10.5-10.5
		C147.074,274.615,142.364,269.904,136.574,269.904z"/>
	<path d="M240.071,297.647c-1.599-0.927-3.42-1.417-5.267-1.417c-3.729,0-7.208,2.003-9.101,5.262
		c-2.884,5.01-1.157,11.439,3.834,14.322c1.598,0.926,3.419,1.416,5.266,1.416c3.732,0,7.214-2.006,9.101-5.262
		c1.398-2.429,1.768-5.257,1.04-7.963C244.216,301.293,242.474,299.03,240.071,297.647z"/>
	<path d="M306.718,224.323c-1.836,0-3.647,0.484-5.251,1.407c-2.432,1.404-4.17,3.672-4.894,6.384
		c-0.725,2.712-0.348,5.544,1.045,7.947c1.868,3.245,5.355,5.261,9.1,5.262c1.836,0,3.647-0.484,5.251-1.407
		c2.432-1.404,4.17-3.672,4.893-6.384c0.725-2.712,0.348-5.544-1.045-7.947C313.949,226.339,310.463,224.323,306.718,224.323z"/>
	<path d="M416.97,206.596l-0.013-0.831c-0.064-5.279-4.222-9.598-9.494-9.864c-14.875-0.751-28.007-9.639-34.27-23.193
		c-1.245-2.694-3.623-4.696-6.489-5.465c-2.867-0.769-5.926-0.224-8.353,1.487c-6.706,4.73-14.927,7.335-23.146,7.336
		c-6.964,0-13.858-1.854-19.935-5.363c-13.458-7.77-21.242-22.804-19.83-38.299c0.269-2.956-0.789-5.879-2.888-7.977
		c-2.099-2.099-5.032-3.152-7.977-2.889c-1.195,0.109-2.411,0.164-3.614,0.164c-14.271,0-27.561-7.662-34.683-19.996
		c-7.77-13.458-6.994-30.369,1.976-43.084c1.711-2.425,2.257-5.485,1.488-8.352c-0.768-2.867-2.77-5.245-5.464-6.49
		c-13.548-6.262-22.434-19.387-23.188-34.254c-0.268-5.269-4.583-9.424-9.858-9.492l-0.816-0.013C209.777,0.01,209.138,0,208.496,0
		C93.531,0,0,93.531,0,208.496s93.531,208.496,208.496,208.496s208.495-93.531,208.495-208.496
		C416.991,207.861,416.981,207.229,416.97,206.596z M208.496,396.991C104.559,396.991,20,312.433,20,208.496
		c0-101.888,81.258-185.154,182.372-188.398c3.158,14.763,11.764,27.746,24.107,36.418c-8.063,17.495-7.341,38.179,2.48,55.19
		c9.771,16.925,27.278,27.985,46.567,29.748c1.761,19.188,12.729,36.746,29.744,46.57c9.114,5.262,19.466,8.043,29.936,8.042
		c8.82-0.001,17.392-1.897,25.258-5.544c8.676,12.343,21.661,20.947,36.427,24.102C393.649,315.737,310.384,396.991,208.496,396.991
		z"/>
</g>
<g>
</g>
<g>
</g>
<g>
</g>
<g>
</g>
<g>
</g>
<g>
</g>
<g>
</g>
<g>
</g>
<g>
</g>
<g>
</g>
<g>
</g>
<g>
</g>
<g>
</g>
<g>
</g>
<g>
</g>
</svg>
